<svg xmlns="http://www.w3.org/2000/svg" viewBox="0 0 2521.2 1396.6">
  <defs>
    <style>
      .b{fill:#a8d29f}.c{fill:#82b378}.d{fill:#ed7d2b}.e{fill:#c7dcfb}.f{fill:#dfebfd}.g{fill:#78acea}.k{fill:#f99746}.l{fill:#afcdfb}.m{fill:#fff}.n{fill:#c65447}.o{fill:#ffb27d}.p{fill:#233862}.q{fill:#2b478b}
    </style>
  </defs>
  <path fill="#ebf3fa" d="M154.6 1395.9s-309.8-332.6-52.4-692.6c228.4-319.5 494.6-297.7 690-168 83.2 55.2 323 6.8 527.2-318.3C1597.8-226.3 2562.9 42.6 2387 724.6c-85.2 330.1 259.1 342.1 83.7 672Z"/>
  <path d="M749.5 753S596.2 534.8 536.4 563.1 749.5 753 749.5 753ZM739.7 694.4s-23.4-164.1-60.3-157.6 60.3 157.6 60.3 157.6Z" class="b"/>
  <path d="M610.2 1205.6s14.7-73-42.5-82.2c0 0-38.8-1.4-61.6 13.3 0 0 64.8 37.4 57.1 49.1s-69.3-47-69.3-47-69.5 30.5-85 52.6c0 0 82.2 14.6 71.8 24s-96.6-1.9-96.6-1.9-55.5 44.8-31.3 80.4 51.8 35.4 60.5 29.2 51.6-57.4 57-50.4-13.4 50.1-35.6 64.1c0 0 69.9 23.6 91-6.3s11.3-53.1 24.7-71.3 28.7-26.7 25.9-14.2-30.6 38.7-30.8 62.6-2.4 41.2 24.8 20.1 63.5-69.9 51.7-96Z" class="c"/>
  <path d="M383.5 1278s163.2-99.6 226.7-72.4c0 0 21.8 19.8 59.2 28l9.9 8.5s-45.9-14.4-57.3-10.4c0 0-16.8-68.1-238.5 46.3Z" class="c"/>
  <path d="M669.4 1233.6s50.6 6.5 79.5 52.4l-6.1 4.2s-38.8-42.5-70.1-50.1-3.3-6.5-3.3-6.5Z" class="c"/>
  <path d="M660.1 992.6s118.5-66.4 63.2-156.4c0 0-44.2-55.3-91.6-69.5 0 0 25.3 134.3 0 137.4s-17.4-151.7-17.4-151.7-124.8-60-173.8-55.3c0 0 77.4 131.2 52.2 128S380.5 689.2 380.5 689.2s-128-23.7-148.5 52.2 12.6 113.7 31.6 118.5S404.2 863 401 878.8s-85.3 41.1-131.1 26.9c0 0 50.5 124.8 116.9 118.5s86.9-47.4 128-50.6 71.1 7.9 50.5 19-90 3.6-123.2 31.8-60 45.6 1.6 58.3 172.2 4.7 194.3-42.7Z" class="b"/>
  <path d="M290.4 765.1s331.8 107.4 369.7 227.5c0 0-1.5 53.7 31.6 115.3v23.7S657 1051.1 638 1040c0 0 74.3-104.3-347.6-274.9Z" class="c"/>
  <path d="M691.7 1107.9s51.2 77.7 22 172.3l-13.1-3.5s12.7-104.2-14-156.6 5.1-12.2 5.1-12.2Z" class="c"/>
  <path d="M780.6 437.4 603.3 1354a30.2 30.2 0 0 0 29.6 36h93.5Z" class="d"/>
  <path d="M1959.1 699.8s-79.7-50.9-37.7-111.3c0 0 33-36.7 66.5-44.7 0 0-22.9 92.4-5.5 95.6s18.2-104.8 18.2-104.8 89.2-36.8 123-31.5c0 0-59 88.1-41.3 86.9s83.4-90 83.4-90 89.9-11.4 101.2 42.2-13.3 78.6-26.7 81.1-97.9-3.4-96.3 7.7 57.6 32 90.1 23.9c0 0-40.2 84.8-86.1 77.8s-58.5-36.5-86.9-40.3-49.8 2.7-35.9 11.2 62.4 6.1 84.4 27 39.9 34.1-3.4 40.4-120-3.5-133.5-37.4Z" class="e"/>
  <path d="M2225.3 556.3s-235 61.5-266.2 143.5c0 0-1 37.4-26.5 78.9l-1 16.5s27.4-54.6 41-61.6c0 0-47.5-75.5 252.7-177.3Z" class="e"/>
  <path d="M1932.6 778.7s-38.7 52-22.2 118.9l9.3-1.9s-4.8-72.9 16-108.3-3.1-8.7-3.1-8.7Z" class="e"/>
  <path d="M1744.4 479s-122.5-27-97.8-121.4c0 0 24.3-60.7 62.4-86 0 0 13.6 125.5 36.8 121.5s-25.2-138.7-25.2-138.7 94.2-86.5 138.8-95.5c0 0-33.3 136.7-11.8 127.1s62.7-150.1 62.7-150.1 106.8-55.3 145.3 6.2 19.3 104 3.8 113.3-123.5 40.4-116.4 53.6 86.4 13.4 123.1-11.4c0 0-11.2 123.8-71.6 136s-89.5-18.6-126.7-10.4-60.7 26.1-39.6 30.4 80.6-21 117.5-4.9 65.3 24.2 14.2 51.9-151 50.3-183.2 14.3Z" class="f"/>
  <path d="M2010.3 178.8S1745.7 362.6 1744.4 479c0 0 15.8 47 3 110.4l6.3 20.9s9.2-80.5 23-95.4c0 0-93.6-72.3 233.6-336.1Z" class="f"/>
  <path d="M1747.4 589.4s-24.4 82.4 26.7 158.2l10.7-6.7s-39.2-88.6-29.6-142.1-7.8-9.4-7.8-9.4Z" class="f"/>
  <path d="m782.7 433.7-117.5 900a49.8 49.8 0 0 0 49.4 56.3H887l-97.2-959.6Z" class="g"/>
  <path fill="#699dee" d="m782.7 433.7-52.6 894.2a58.6 58.6 0 0 0 58.5 62.1h257.1Z"/>
  <path fill="#5288d8" d="m780.7 441 25.6 886.9a58.6 58.6 0 0 0 58.5 62.1h257.1Z"/>
  <path fill="#d7e9ff" d="M2011.8 1390H998a52.4 52.4 0 0 1-51.6-43L792.1 503.4a62.4 62.4 0 0 1 61.4-73.6h1001.8a52.4 52.4 0 0 1 51.6 43l156.4 855.3a52.4 52.4 0 0 1-51.5 61.9Z"/>
  <path d="M812.2 612.9h1121l-28.7-159.3a29 29 0 0 0-28.6-23.8H790.1a9.5 9.5 0 0 0-9.4 11.2Z" class="k"/>
  <path d="M838.4 381.8a48.7 48.7 0 0 0-48.6 48.6h9.3a39.3 39.3 0 1 1 52.2 37.1 38.3 38.3 0 0 1-10.7 2.1v9.4a51.1 51.1 0 0 0 12.5-2.2 49.1 49.1 0 0 0 32.3-33.9 47.1 47.1 0 0 0 1.6-12.5 48.7 48.7 0 0 0-48.6-48.6Z" class="g"/>
  <path d="M853.4 474a13.3 13.3 0 0 1-.3 2.8 10.6 10.6 0 0 1-10.2 7.7 10.6 10.6 0 0 1 0-21.1 10.7 10.7 0 0 1 8.4 4.1 11 11 0 0 1 2.1 6.5ZM1012.7 381.8a48.7 48.7 0 0 0-48.6 48.6h9.3a39.3 39.3 0 1 1 52.1 37.1 37 37 0 0 1-10.6 2.1v9.4a50.3 50.3 0 0 0 12.4-2.2 49 49 0 0 0 32.4-33.9 51.6 51.6 0 0 0 1.6-12.5 48.7 48.7 0 0 0-48.6-48.6Z" class="g"/>
  <path d="M1027.7 474a9 9 0 0 1-.4 2.8 10.5 10.5 0 0 1-20.7-2.8 10.7 10.7 0 0 1 10.6-10.6 10.5 10.5 0 0 1 10.5 10.6ZM1186.9 381.8a48.7 48.7 0 0 0-48.6 48.6h9.3a39.3 39.3 0 1 1 52.2 37.1 38.3 38.3 0 0 1-10.7 2.1v9.4a51.1 51.1 0 0 0 12.5-2.2 49.1 49.1 0 0 0 32.3-33.9 47.1 47.1 0 0 0 1.6-12.5 48.7 48.7 0 0 0-48.6-48.6Z" class="g"/>
  <path d="M1201.9 474a13.3 13.3 0 0 1-.3 2.8 10.6 10.6 0 0 1-10.2 7.7 10.6 10.6 0 0 1 0-21.1 10.7 10.7 0 0 1 8.4 4.1 11 11 0 0 1 2.1 6.5ZM1361.2 381.8a48.7 48.7 0 0 0-48.6 48.6h9.3a39.3 39.3 0 1 1 52.1 37.1 37 37 0 0 1-10.6 2.1v9.4a50.3 50.3 0 0 0 12.4-2.2 49 49 0 0 0 32.4-33.9 51.6 51.6 0 0 0 1.6-12.5 48.7 48.7 0 0 0-48.6-48.6Z" class="g"/>
  <path d="M1376.2 474a9 9 0 0 1-.4 2.8 10.5 10.5 0 1 1-10.1-13.4 10.5 10.5 0 0 1 10.5 10.6ZM1535.4 381.8a48.7 48.7 0 0 0-48.6 48.6h9.3a39.3 39.3 0 1 1 52.2 37.1 38.3 38.3 0 0 1-10.7 2.1v9.4a51.1 51.1 0 0 0 12.5-2.2 48.9 48.9 0 0 0 32.3-33.9 47.1 47.1 0 0 0 1.6-12.5 48.7 48.7 0 0 0-48.6-48.6Z" class="g"/>
  <path d="M1550.4 474a13.3 13.3 0 0 1-.3 2.8 10.6 10.6 0 0 1-10.2 7.7 10.6 10.6 0 0 1 0-21.1 10.7 10.7 0 0 1 8.4 4.1 11 11 0 0 1 2.1 6.5ZM1709.7 381.8a48.7 48.7 0 0 0-48.6 48.6h9.3a39.3 39.3 0 1 1 52.1 37.1 37 37 0 0 1-10.6 2.1v9.4a50.3 50.3 0 0 0 12.4-2.2 49 49 0 0 0 32.4-33.9 51.6 51.6 0 0 0 1.6-12.5 48.7 48.7 0 0 0-48.6-48.6Z" class="g"/>
  <path d="M1724.7 474a9 9 0 0 1-.4 2.8 10.5 10.5 0 1 1-10.1-13.4 10.5 10.5 0 0 1 10.5 10.6ZM1883.9 381.8a48.7 48.7 0 0 0-48.6 48.6h9.4a39.3 39.3 0 1 1 52.1 37.1 37.6 37.6 0 0 1-10.6 2.1v9.4a51.2 51.2 0 0 0 12.4-2.2 48.9 48.9 0 0 0 32.3-33.9 47.1 47.1 0 0 0 1.6-12.5 48.7 48.7 0 0 0-48.6-48.6Z" class="g"/>
  <path d="M1899 474a13.5 13.5 0 0 1-.4 2.8 10.6 10.6 0 0 1-10.2 7.7 10.6 10.6 0 0 1 0-21.1 10.7 10.7 0 0 1 8.4 4.1 11 11 0 0 1 2.2 6.5Z" class="g"/>
  <path d="M1460.5 912.1h-56.7c-6.5 0-12.9-5.3-14.2-11.9l-10.9-56.6c-1.3-6.6 3-12 9.6-12h56.7c6.5 0 12.9 5.4 14.2 12l10.9 56.6c1.3 6.6-3.1 11.9-9.6 11.9ZM1603.5 912.1h-56.7c-6.5 0-12.9-5.3-14.2-11.9l-10.9-56.6c-1.3-6.6 3-12 9.6-12h56.7c6.5 0 12.9 5.4 14.2 12l10.9 56.6c1.3 6.6-3.1 11.9-9.6 11.9Z" class="l"/>
  <path d="M1746.5 912.1h-56.7c-6.5 0-12.9-5.3-14.2-11.9l-10.9-56.6c-1.3-6.6 3-12 9.6-12h56.7c6.5 0 12.9 5.4 14.2 12l10.9 56.6c1.3 6.6-3.1 11.9-9.6 11.9Z" class="g"/>
  <path d="M1031.5 912.1h-56.7c-6.5 0-12.9-5.3-14.2-11.9l-10.9-56.6c-1.3-6.6 3-12 9.6-12h56.7c6.5 0 12.9 5.4 14.2 12l10.9 56.6c1.3 6.6-3.1 11.9-9.6 11.9Z" class="l"/>
  <path d="M969.4 742H945a6.6 6.6 0 0 1-6.1-5.1l-4.7-24.4a4.1 4.1 0 0 1 4.1-5.1h24.4a6.5 6.5 0 0 1 6.1 5.1l4.7 24.4a4.1 4.1 0 0 1-4.1 5.1Z" class="k"/>
  <path d="M1174.5 912.1h-56.7c-6.5 0-12.9-5.3-14.2-11.9l-10.9-56.6c-1.3-6.6 3-12 9.6-12h56.7c6.5 0 12.9 5.4 14.2 12l10.9 56.6c1.3 6.6-3.1 11.9-9.6 11.9ZM1317.5 912.1h-56.7c-6.5 0-12.9-5.3-14.2-11.9l-10.9-56.6c-1.3-6.6 3-12 9.6-12h56.7c6.5 0 12.9 5.4 14.2 12l10.9 56.6c1.3 6.6-3.1 11.9-9.6 11.9Z" class="l"/>
  <path d="M1889.5 912.1h-56.7c-6.5 0-12.9-5.3-14.2-11.9l-10.9-56.6c-1.3-6.6 3-12 9.6-12h56.7c6.5 0 12.9 5.4 14.2 12l10.9 56.6c1.3 6.6-3.1 11.9-9.6 11.9Z" class="g"/>
  <path d="M1436.7 789.1h-56.6c-6.6 0-13-5.4-14.2-12l-11-56.6c-1.2-6.6 3.1-11.9 9.6-11.9h56.7a15 15 0 0 1 14.2 11.9l11 56.6c1.2 6.6-3.1 12-9.7 12ZM1579.7 789.1h-56.6c-6.6 0-13-5.4-14.2-12l-11-56.6c-1.2-6.6 3.1-11.9 9.6-11.9h56.7a15 15 0 0 1 14.2 11.9l11 56.6c1.2 6.6-3.1 12-9.7 12Z" class="l"/>
  <path d="M1722.7 789.1h-56.6c-6.6 0-13-5.4-14.2-12l-11-56.6c-1.2-6.6 3.1-11.9 9.7-11.9h56.6a15 15 0 0 1 14.2 11.9l11 56.6c1.2 6.6-3.1 12-9.7 12ZM1865.8 789.1h-56.7c-6.6 0-13-5.4-14.2-12l-11-56.6c-1.2-6.6 3.1-11.9 9.7-11.9h56.6a15 15 0 0 1 14.2 11.9l11 56.6c1.2 6.6-3.1 12-9.6 12Z" class="g"/>
  <path d="M1485.7 1042.6H1429c-6.6 0-13-5.4-14.2-11.9l-11-56.7c-1.2-6.5 3.1-11.9 9.7-11.9h56.6c6.6 0 13 5.4 14.2 11.9l11 56.7c1.2 6.5-3.1 11.9-9.6 11.9ZM1628.7 1042.6H1572c-6.6 0-13-5.4-14.2-11.9l-11-56.7c-1.2-6.5 3.1-11.9 9.7-11.9h56.6c6.6 0 13 5.4 14.2 11.9l11 56.7c1.2 6.5-3.1 11.9-9.6 11.9Z" class="l"/>
  <path d="M1771.7 1042.6H1715c-6.6 0-13-5.4-14.2-11.9l-11-56.7c-1.2-6.5 3.1-11.9 9.7-11.9h56.6c6.6 0 13 5.4 14.2 11.9l11 56.7c1.2 6.5-3.1 11.9-9.6 11.9Z" class="g"/>
  <path d="M1056.6 1042.6H1000c-6.6 0-13-5.4-14.2-11.9l-11-56.7c-1.2-6.5 3.1-11.9 9.6-11.9h56.7c6.6 0 13 5.4 14.2 11.9l11 56.7c1.2 6.5-3.1 11.9-9.7 11.9ZM1199.6 1042.6H1143c-6.6 0-13-5.4-14.2-11.9l-11-56.7c-1.2-6.5 3.1-11.9 9.7-11.9h56.6c6.6 0 13 5.4 14.2 11.9l11 56.7c1.2 6.5-3.1 11.9-9.7 11.9ZM1342.6 1042.6H1286c-6.6 0-13-5.4-14.2-11.9l-11-56.7c-1.2-6.5 3.1-11.9 9.7-11.9h56.6c6.6 0 13 5.4 14.2 11.9l11 56.7c1.2 6.5-3.1 11.9-9.7 11.9Z" class="l"/>
  <path d="M1914.7 1042.6H1858c-6.6 0-13-5.4-14.2-11.9l-11-56.7c-1.2-6.5 3.1-11.9 9.7-11.9h56.6c6.6 0 13 5.4 14.2 11.9l11 56.7c1.2 6.5-3.1 11.9-9.6 11.9Z" class="g"/>
  <path d="M1510.8 1173h-56.7c-6.5 0-12.9-5.3-14.2-11.9l-10.9-56.6c-1.3-6.6 3.1-11.9 9.6-11.9h56.7c6.5 0 12.9 5.3 14.2 11.9l10.9 56.6c1.3 6.6-3 11.9-9.6 11.9ZM1653.8 1173h-56.7c-6.5 0-12.9-5.3-14.2-11.9l-10.9-56.6c-1.3-6.6 3.1-11.9 9.6-11.9h56.7c6.5 0 12.9 5.3 14.2 11.9l10.9 56.6c1.3 6.6-3 11.9-9.6 11.9Z" class="l"/>
  <path d="M1796.8 1173h-56.7c-6.5 0-12.9-5.3-14.2-11.9l-10.9-56.6c-1.3-6.6 3.1-11.9 9.6-11.9h56.7c6.5 0 12.9 5.3 14.2 11.9l10.9 56.6c1.3 6.6-3 11.9-9.6 11.9Z" class="g"/>
  <path d="M1081.8 1173h-56.7c-6.5 0-12.9-5.3-14.2-11.9l-10.9-56.6c-1.3-6.6 3.1-11.9 9.6-11.9h56.7c6.5 0 12.9 5.3 14.2 11.9l10.9 56.6c1.3 6.6-3 11.9-9.6 11.9Z" class="l"/>
  <path d="M1224.8 1173h-56.7c-6.5 0-12.9-5.3-14.2-11.9l-10.9-56.6c-1.3-6.6 3.1-11.9 9.6-11.9h56.7c6.5 0 12.9 5.3 14.2 11.9l10.9 56.6c1.3 6.6-3 11.9-9.6 11.9Z" class="k"/>
  <path d="M1367.8 1173h-56.7c-6.5 0-12.9-5.3-14.2-11.9l-10.9-56.6c-1.3-6.6 3.1-11.9 9.6-11.9h56.7c6.5 0 12.9 5.3 14.2 11.9l10.9 56.6c1.3 6.6-3 11.9-9.6 11.9Z" class="l"/>
  <path d="M1939.8 1173h-56.6a15.2 15.2 0 0 1-14.3-11.9l-10.9-56.6c-1.3-6.6 3.1-11.9 9.6-11.9h56.7c6.5 0 12.9 5.3 14.2 11.9l10.9 56.6c1.3 6.6-3 11.9-9.6 11.9Z" class="g"/>
  <path d="M1534.6 1296.1h-56.7a15 15 0 0 1-14.2-11.9l-11-56.6c-1.2-6.6 3.1-12 9.7-12h56.6c6.6 0 13 5.4 14.2 12l11 56.6c1.2 6.6-3.1 11.9-9.6 11.9ZM1677.6 1296.1h-56.7a15 15 0 0 1-14.2-11.9l-11-56.6c-1.2-6.6 3.1-12 9.7-12h56.6c6.6 0 13 5.4 14.2 12l11 56.6c1.2 6.6-3.1 11.9-9.6 11.9Z" class="l"/>
  <path d="M1820.6 1296.1h-56.7a15 15 0 0 1-14.2-11.9l-10.9-56.6c-1.3-6.6 3-12 9.6-12h56.6c6.6 0 13 5.4 14.2 12l11 56.6c1.2 6.6-3.1 11.9-9.6 11.9Z" class="g"/>
  <path d="M1105.6 1296.1h-56.7a15 15 0 0 1-14.2-11.9l-11-56.6c-1.2-6.6 3.1-12 9.7-12h56.6c6.6 0 13 5.4 14.2 12l11 56.6c1.2 6.6-3.1 11.9-9.6 11.9ZM1248.6 1296.1h-56.7a15 15 0 0 1-14.2-11.9l-11-56.6c-1.2-6.6 3.1-12 9.7-12h56.6c6.6 0 13 5.4 14.2 12l11 56.6c1.2 6.6-3.1 11.9-9.6 11.9ZM1391.6 1296.1h-56.7a15 15 0 0 1-14.2-11.9l-11-56.6c-1.2-6.6 3.1-12 9.7-12h56.6c6.6 0 13 5.4 14.2 12l11 56.6c1.2 6.6-3.1 11.9-9.6 11.9ZM1141.1 719.6H991a4 4 0 0 1-4-4 4 4 0 0 1 4-4h150.1a4.1 4.1 0 0 1 4.1 4 4.1 4.1 0 0 1-4.1 4ZM1145.7 737.8H995.6a4.1 4.1 0 0 1-4.1-4 4.1 4.1 0 0 1 4.1-4h150.1a4 4 0 0 1 4 4 4 4 0 0 1-4 4Z" class="l"/>
  <path d="M980.1 584.2h-51.5a7.7 7.7 0 0 1-7.7-7.6 7.7 7.7 0 0 1 7.7-7.7h51.5a7.7 7.7 0 0 1 7.7 7.7 7.7 7.7 0 0 1-7.7 7.6ZM1121.5 584.2H1070a7.6 7.6 0 0 1-7.7-7.6 7.6 7.6 0 0 1 7.7-7.7h51.5a7.7 7.7 0 0 1 7.7 7.7 7.7 7.7 0 0 1-7.7 7.6ZM1262.8 584.2h-51.5a7.6 7.6 0 0 1-7.6-7.6 7.6 7.6 0 0 1 7.6-7.7h51.5a7.6 7.6 0 0 1 7.7 7.7 7.6 7.6 0 0 1-7.7 7.6ZM1404.2 584.2h-51.5a7.7 7.7 0 0 1-7.7-7.6 7.7 7.7 0 0 1 7.7-7.7h51.5a7.7 7.7 0 0 1 7.7 7.7 7.7 7.7 0 0 1-7.7 7.6ZM1545.6 584.2h-51.5a7.6 7.6 0 0 1-7.7-7.6 7.6 7.6 0 0 1 7.7-7.7h51.5a7.7 7.7 0 0 1 7.7 7.7 7.7 7.7 0 0 1-7.7 7.6ZM1687 584.2h-51.6a7.6 7.6 0 0 1-7.6-7.6 7.6 7.6 0 0 1 7.6-7.7h51.6a7.6 7.6 0 0 1 7.6 7.7 7.6 7.6 0 0 1-7.6 7.6ZM1828.3 584.2h-51.5a7.7 7.7 0 0 1-7.7-7.6 7.7 7.7 0 0 1 7.7-7.7h51.5a7.7 7.7 0 0 1 7.7 7.7 7.7 7.7 0 0 1-7.7 7.6Z" class="m"/>
  <path d="M1502.5 790.2c-11.4 0-19.7-3.6-24.2-10.6-8.7-13.5-2-32.3 19.9-56a264.4 264.4 0 0 1 34.7-31.2 1.6 1.6 0 1 1 2 2.6c-.8.6-72.5 53.7-53.8 82.8 5.9 9.2 18.6 9.8 28.2 8.7 17.8-2.1 41-11.7 62-25.7s37.2-30.7 42.2-44.7c3.2-9.2 2.2-15.7-3-19.3-6.8-4.7-21-4.7-38 0s-32.6 12.6-42.7 21.1a1.6 1.6 0 0 1-2.1-2.5c10.4-8.8 27.2-17.2 43.9-21.8 18.2-5 33-4.8 40.7.5 4.6 3.1 9 9.7 4.3 23.1s-21.1 31.5-43.4 46.4-45.2 24-63.5 26.1a60.9 60.9 0 0 1-7.2.5Z" class="n"/>
  <path d="m1800 696.8-5.9-11.1s2.9-19.6-21.7-32.1c0 0-9-3.6-14.1 3.7s8.9 5.5 8.2 17.1 4.7 18.4 12.4 22.1l6.3 7.4Z" class="o"/>
  <path d="M2032.8 670.4s-21.2 103.8-137.6 137.7c-36.3 10.6-118.9-109-118.9-109s2.9-11 21.1-8.5c0 0 80.4 53.2 90.5 59s68-66 95-77.4 49.9-1.8 49.9-1.8Z" class="p"/>
  <path d="m1696.7334545 693.68926595-4.66522946-25.17132563 126.7218925-23.48651453 4.66522944 25.17132563z" class="n"/>
  <path d="m1665.2 686.6 31.8 7.1-4.7-25.2-27.1 18.1zM1835.4 650.7l1.4 7.9a9.1 9.1 0 0 1-7.2 10.6l-5.9 1-4.6-25.2 6.3-1.1a8.5 8.5 0 0 1 10 6.8Z" class="o"/>
  <path d="M2171.8 1323.1s14.4 13.2 11.6 22.6-15.9 15.6-17.6 27.1-8.8 17.6-15.2 17.6h-30.2s-4.7-8 6.6-10.4 15.5-15.9 14.8-28.4 1.1-29.1 1.1-29.1l23.9-5.6ZM1994.6 1357.2s2.6 30-3.8 33.2l-81.1-.2s0-9.4 13-11.5 35.9-9.7 39.8-26.7 32.1 5.2 32.1 5.2Z" class="p"/>
  <path d="M1926.1 933.5s4.2 52.6 9.3 115.8c6.8 85.9 15 191.3 15.9 211.3 1.4 34.7 7 90.2 7 90.2s13.4 13.2 40.2 7.6c0 0 23.8-79.2 30.6-163 .1-1.4.3-2.8.4-4.2 6.3-85.3 16.2-265 16.2-265Z" class="k"/>
  <path d="M1926.1 933.5s4.2 52.6 9.3 115.8l93.7 146.1c.1-1.4.3-2.8.4-4.2 6.3-85.3 16.2-265 16.2-265Z" class="d"/>
  <path d="M1945.6 939.7s77.2 190.5 127.9 280 66.6 114.4 66.6 114.4 29-11.4 31.7-19.2c0 0-19.4-172.8-53.4-214.9-19.2-23.8-41.7-95.2-42.8-120.2s-6.9-74.4-6.9-74.4Z" class="k"/>
  <path d="M2047.1 646.3s-52.2 25.2-82.3 15.8a71.6 71.6 0 0 1 20.4-16.3c-1-6-1.9-11.3-2.3-15.7a143.2 143.2 0 0 1-1.3-16.1l20.1-15.8 19.1-15.2c-1.5 42.6 26.3 63.3 26.3 63.3Z" class="o"/>
  <path d="M1922.8 937.8a4.6 4.6 0 0 0 3.1 1.3c11.3-.2 44.3 6 72.2 3.2 23.6-2.3 44.5-9.1 66.8-18.9 3-1.4 9.8-5 9.7-8.2s-.4-8.8-.9-15.4c-.9-13-2.2-31.5-2.7-53.5-.3-16.2-.1-34.3 1.1-53.5 0-1.3.1-2.6.2-3.9.3-7.1.5-14.2.5-21.1a362.9 362.9 0 0 0-4.8-62.7c-5.6-33-16.3-58.9-32-70.4-2.1-1.6-15.1 4.7-27.1 10.5a50.8 50.8 0 0 1-32.4 3.9l-10.4 9.1c-12.7 11.5-26.6 27.3-32.7 51.3-5.1 20.2-8.1 56.9-9.7 95-.8 17.3-1.4 34.6-1.6 51.2v.5c-.1 1.7-.1 3.5-.1 5.2-.6 42.3 0 75.9.8 76.4Z" class="q"/>
  <path fill="#ed985f" d="M2021.2 599.3s-13.2 24.1-38.3 30.8a143.2 143.2 0 0 1-1.3-16.1l20.1-15.8Z"/>
  <path d="M1972.4 613.3s49.8 8.2 54.5-22.4 14.2-50.2-17.4-56.7-39.5 4.3-43.6 14.1-6.3 62.1 6.5 65Z" class="o"/>
  <path fill="#2c3a64" d="M2045 530.5c.4-.5 1.5-.9 3.8-1a9.1 9.1 0 0 0-4.3-1.3c-.5-3.2-2.2-8.9-7.8-10.3a7 7 0 0 1 3.4 5c-6.4-6.6-20.2-11.4-58.4-8.4-50.3 4-33.7 36.2-27.2 40s22.9-6.6 35-5.7 14.5 18.5 18.6 20.9 2.5-1.8 8.1-4.3 6.1 6.7 4.5 12.7 6 13.9 6 13.9l7.7-8.4c7.8-8.3 15-43.5 11.5-51.1Z"/>
  <path d="M1794 685.2s1.7-6.8-3-9.8-9-11.3-11-10.2c-4.1 2.3 2.3 9.5 1.1 18.5-.4 3.2 6.9 11.5 12.9 1.5Z" class="o"/>
  <path d="M2071 846.3c-.3-16.2-.1-34.3 1.1-53.5 0-1.3.1-2.6.2-3.9-4.8-23.5-11.9-44.3-22.5-45 0 0-31.4 49.4 21.2 102.4Z" class="p"/>
  <path d="M2112.6 931.4s-2.7 25.5-5.5 30.3-15.1 20.2-20.3 23.2 3.1-20.3 2.1-24.8-4.3 8.3-6.6 8.6-1.7-11.2-1.8-15.4 11.2-14.6 15.2-23.5 16.9 1.6 16.9 1.6Z" class="o"/>
  <path d="M2035.9 634.4s31.6 15 46.7 37.9c23.4 35.6 50.6 165.2 51.1 177.2s-19.9 96.8-19.9 96.8-20.6-1.3-25.9-11.7c0 0 4.1-87.1 1.5-92.7s-85.9-116.9-76.6-140.6 23.1-66.9 23.1-66.9Z" class="q"/>
  <path d="m1681.5 675.7 1.7 14.9-18-4 16.3-10.9z" class="n"/>
  <path d="M2363.3 1390h-90.8c-4.9-4.2 3.4-13.5 12-14.2 3.7-.3 8.4.5 13.8 1.7 1.3-16.6 8.4-91.2 35.3-88.2 30.2 3.3 0 32.8-8.6 50.3-6.3 12.9-13 31.5-16 40.2l7.6 1.6c4-12.3 18.9-53.7 37.9-51.3 22.2 2.8 13.3 19.4-2.5 29.2-11.6 7.3-25.8 17.6-32.6 22.6a104.3 104.3 0 0 0 17.8 1.4c15.5-.4 23.1 4.2 26.1 6.7ZM290.6 1385.6c-4.8-7.5-19.3-27.1-38.6-24.5-21 2.8 23.2 16.7 36.8 24.6a22.6 22.6 0 0 1-7.5-.9c-9.1-3.2-24.6 3-29.5 5.2h86.1a13.3 13.3 0 0 0-6.1-7.9c-1.4-.9-4.3-1-8-.7 5.2-6.1 8.7-25.4-5.5-20.4-10.5 3.6-10.4 15.4-9.4 22.4l-6.7 1c-4.3-21.9-19.5-85.9-50.2-87.6s26.4 66.4 45.6 88.2Z" class="c"/>
</svg>
